:SAMPLES-PER-SECOND 30
:FULLY-SPECIFIED
:DEGREES
534
root  -49.6935 33.8024 41.6519 -174.088 0.0780029 176.11
RightUpLeg  -2.80548 -19.3011 -2.90009
RightLeg  27.2816 -1.46692 -0.647907
RightFoot  -9.98072 -0.0142229 0.387876
RightToes  -37.8571 -0.201595 -0.3027
Spine  -2.38547 2.66649 -1.67977
Spine1  -4.5175 5.184 -3.10995
HEad  -74.6039 -8.90885 3.9801
LeftShoulder1  -1.94126e-019 -3.10601e-018 -2.51263e-017
LeftArm  -44.6839 44.263 -92.342
LeftForeArm  25.0354 -16.2414 -2.45111
LeftHand  -0.143409 -3.04175 2.20682
RightShoulder  -4.96962e-017 0 -2.36833e-017
RightArm  -37.7508 -38.831 70.018
RightForeArm  67.45 3.93206 0.635134
RightHand  -0.121526 -4.04399 -9.16259
LeftUpLeg  -20.6487 -0.222255 6.11653
LeftLeg  39.0491 16.7745 11.5711
LeftFoot  -4.97268 -0.0879657 -1.86404
LeftToes  -33.0775 2.40056e-006 -7.68412e-008
535
root  -49.8037 33.9621 41.2819 -173.445 2.59229 175.972
RightUpLeg  -3.29853 -18.0759 -3.52858
RightLeg  27.151 -0.277369 -0.12758
RightFoot  -8.24103 -0.0273547 0.165023
RightToes  -40.3589 -0.221357 -0.317141
Spine  -2.31409 2.77756 -1.51067
Spine1  -4.38743 5.5873 -2.82668
HEad  -76.5494 -6.7296 3.7642
LeftShoulder1  -1.94126e-019 -3.10601e-018 -2.51263e-017
LeftArm  -44.3152 44.455 -89.9175
LeftForeArm  25.1693 -15.2133 -2.3723
LeftHand  -0.310706 -4.08517 4.0817
RightShoulder  -4.96962e-017 0 -2.36833e-017
RightArm  -38.661 -37.6525 67.9565
RightForeArm  67.0532 4.78438 0.784646
RightHand  -0.17254 -3.43787 -9.51301
LeftUpLeg  -22.2452 0.234865 5.76651
LeftLeg  39.1512 17.2115 11.8991
LeftFoot  -5.10457 -0.0938863 -1.94443
LeftToes  -32.5135 2.40056e-006 -7.68412e-008
536
root  -49.9511 34.1088 40.8404 -173.123 5.25334 176.04
RightUpLeg  -3.3376 -16.2423 -4.07481
RightLeg  26.8259 0.510251 0.211186
RightFoot  -6.48131 -0.0257937 0.0870912
RightToes  -42.7472 -0.240793 -0.330109
Spine  -2.08368 2.93352 -1.23285
Spine1  -3.93416 6.13507 -2.29859
HEad  -78.4446 -4.39316 4.00247
LeftShoulder1  -1.94126e-019 -3.10601e-018 -2.51263e-017
LeftArm  -43.0415 44.6168 -87.1693
LeftForeArm  26.2977 -14.5719 -2.30426
LeftHand  -0.274087 -1.81751 4.59181
RightShoulder  -4.96962e-017 0 -2.36833e-017
RightArm  -38.9006 -35.7969 66.237
RightForeArm  64.7766 5.78439 0.962722
RightHand  -0.293008 -2.36645 -10.9595
LeftUpLeg  -23.5406 1.2625 5.36292
LeftLeg  39.2101 17.3667 12.0255
LeftFoot  -5.3747 -0.102687 -2.0259
LeftToes  -31.801 2.40056e-006 -7.68412e-008
537
root  -50.1319 34.2318 40.342 -172.917 7.48955 176.442
RightUpLeg  -2.49327 -14.5228 -4.40295
RightLeg  25.268 1.1338 0.442924
RightFoot  -4.52837 -0.0183392 0.0801944
RightToes  -45.4291 -0.26324 -0.343692
Spine  -1.80035 2.92029 -0.846331
Spine1  -3.34244 6.3305 -1.54803
HEad  -80.2766 -2.06389 4.45267
LeftShoulder1  -1.94126e-019 -3.10601e-018 -2.51263e-017
LeftArm  -41.907 44.5439 -84.137
LeftForeArm  26.3009 -12.6782 -2.12614
LeftHand  -0.490033 -3.17059 6.88723
RightShoulder  -4.96962e-017 0 -2.36833e-017
RightArm  -37.8365 -33.7995 65.0097
RightForeArm  62.2071 7.70483 1.3052
RightHand  -0.331871 -1.96353 -11.0426
LeftUpLeg  -25.017 1.81558 5.15777
LeftLeg  39.5062 16.9005 11.8458
LeftFoot  -5.78093 -0.113571 -2.08747
LeftToes  -31.3466 2.40056e-006 -7.68412e-008
538
root  -50.3779 34.2972 39.8153 -172.581 9.98776 176.504
RightUpLeg  -2.53652 -12.8492 -5.21736
RightLeg  25.1548 1.92975 0.753387
RightFoot  -3.40948 -0.0137131 0.085653
RightToes  -47.4926 -0.280931 -0.353419
Spine  -1.54741 2.97599 -0.609306
Spine1  -2.8319 6.60557 -1.05511
HEad  -82.0201 0.309387 5.28042
LeftShoulder1  -1.94126e-019 -3.10601e-018 -2.51263e-017
LeftArm  -39.2734 44.5998 -80.8624
LeftForeArm  27.2255 -11.784 -2.01875
LeftHand  -0.383505 -0.947965 7.15659
RightShoulder  -4.96962e-017 0 -2.36833e-017
RightArm  -35.28 -31.6336 64.2742
RightForeArm  59.0815 9.97434 1.53298
RightHand  -0.309596 -1.99233 -10.3645
LeftUpLeg  -26.5091 1.97422 4.45296
LeftLeg  39.3414 16.611 11.5854
LeftFoot  -6.15327 -0.123577 -2.13727
LeftToes  -31.3989 2.40056e-006 -7.68412e-008
539
root  -50.6466 34.3052 39.2327 -172.379 12.548 176.877
RightUpLeg  -2.25743 -11.325 -5.92104
RightLeg  24.8631 2.88391 1.11166
RightFoot  -2.39186 -0.00937779 0.102919
RightToes  -50.2094 -0.304734 -0.365243
Spine  -1.18375 3.00793 -0.272588
Spine1  -2.08127 6.78315 -0.357624
HEad  -84.0531 2.96088 6.71505
LeftShoulder1  -1.94126e-019 -3.10601e-018 -2.51263e-017
LeftArm  -36.2104 44.1712 -77.8672
LeftForeArm  26.1713 -10.2159 -1.79653
LeftHand  -0.246364 0.308426 5.64576
RightShoulder  -4.96962e-017 0 -2.36833e-017
RightArm  -32.8867 -28.7618 63.9111
RightForeArm  55.9841 11.7221 1.50494
RightHand  -0.373551 -1.2873 -10.4762
LeftUpLeg  -27.768 2.11699 3.99132
LeftLeg  38.8965 15.7347 10.8295
LeftFoot  -6.92906 -0.145201 -2.23647
LeftToes  -31.5534 2.40056e-006 -7.68412e-008
